<svg id="search_icon" data-name="search icon" xmlns="http://www.w3.org/2000/svg" width="14.921" height="13.658" viewBox="0 0 14.921 13.658">
  <g id="Path_283" data-name="Path 283" fill="none">
    <path d="M6.317,0A6.317,6.317,0,1,1,0,6.317,6.317,6.317,0,0,1,6.317,0Z" stroke="none"/>
    <path d="M 6.317287921905518 1.999998092651367 C 3.936727523803711 1.999998092651367 1.999998092651367 3.936727523803711 1.999998092651367 6.317287921905518 C 1.999998092651367 8.697847366333008 3.936727523803711 10.63457775115967 6.317287921905518 10.63457775115967 C 8.697847366333008 10.63457775115967 10.63457775115967 8.697847366333008 10.63457775115967 6.317287921905518 C 10.63457775115967 3.936727523803711 8.697847366333008 1.999998092651367 6.317287921905518 1.999998092651367 M 6.317287921905518 -1.9073486328125e-06 C 9.806227684020996 -1.9073486328125e-06 12.63457775115967 2.828348159790039 12.63457775115967 6.317287921905518 C 12.63457775115967 9.806227684020996 9.806227684020996 12.63457775115967 6.317287921905518 12.63457775115967 C 2.828348159790039 12.63457775115967 -1.9073486328125e-06 9.806227684020996 -1.9073486328125e-06 6.317287921905518 C -1.9073486328125e-06 2.828348159790039 2.828348159790039 -1.9073486328125e-06 6.317287921905518 -1.9073486328125e-06 Z" stroke="none" fill="#a6adb4"/>
  </g>
  <line id="Line_1" data-name="Line 1" x2="3.159" y2="3.159" transform="translate(11.055 9.792)" fill="none" stroke="#a6adb4" stroke-width="2"/>
</svg>
